<svg width="40" height="40" viewBox="0 0 40 40" fill="none" xmlns="http://www.w3.org/2000/svg">
<path d="M28.3335 23.3333H31.6668V28.3333H36.6668V31.6667H31.6668V36.6667H28.3335V31.6667H23.3335V28.3333H28.3335V23.3333ZM33.3335 18.3333V13.3333H6.66683V18.3333H33.3335ZM21.6668 21.6667V24.4667C20.6168 26.05 20.0002 27.95 20.0002 30C20.0002 31.8167 20.4835 33.5333 21.3335 35H6.66683C5.78277 35 4.93493 34.6488 4.30981 34.0237C3.68469 33.3986 3.3335 32.5507 3.3335 31.6667V5L6.11683 7.78333L8.8835 5L11.6668 7.78333L14.4502 5L17.2168 7.78333L20.0002 5L22.7835 7.78333L25.5502 5L28.3335 7.78333L31.1168 5L33.8835 7.78333L36.6668 5V22.5C34.8157 20.8951 32.4501 20.008 30.0002 20C27.9502 20 26.0502 20.6167 24.4668 21.6667H21.6668ZM18.3335 31.6667V21.6667H6.66683V31.6667H18.3335Z" fill="white"/>
</svg>
