<svg width="134" height="134" viewBox="0 0 134 134" fill="none" xmlns="http://www.w3.org/2000/svg">
<path d="M111.667 36.2917V53.0417M94.9165 36.2917H111.667H94.9165ZM128.417 36.2917H111.667H128.417ZM111.667 36.2917V19.5417V36.2917Z" stroke="white" stroke-width="2.5" stroke-linecap="round" stroke-linejoin="round"/>
<path d="M33.5 89.3333V27.9166L78.1667 22.3333" stroke="white" stroke-width="2.5" stroke-linecap="round" stroke-linejoin="round"/>
<path d="M83.75 78.1666V55.8333" stroke="white" stroke-width="2.5" stroke-linecap="round" stroke-linejoin="round"/>
<path d="M66.9999 106.083H72.5833C75.5448 106.083 78.3851 104.907 80.4793 102.813C82.5734 100.719 83.7499 97.8782 83.7499 94.9167V78.1667H66.9999C64.0383 78.1667 61.1981 79.3431 59.1039 81.4373C57.0097 83.5315 55.8333 86.3717 55.8333 89.3333V94.9167C55.8333 97.8782 57.0097 100.719 59.1039 102.813C61.1981 104.907 64.0383 106.083 66.9999 106.083Z" stroke="white" stroke-width="2.5" stroke-linecap="round" stroke-linejoin="round"/>
<path d="M16.7499 117.25H22.3333C25.2948 117.25 28.1351 116.073 30.2293 113.979C32.3234 111.885 33.4999 109.045 33.4999 106.083V89.3333H16.7499C13.7883 89.3333 10.948 90.5098 8.85389 92.604C6.75974 94.6981 5.58325 97.5384 5.58325 100.5V106.083C5.58325 109.045 6.75974 111.885 8.85389 113.979C10.948 116.073 13.7883 117.25 16.7499 117.25Z" stroke="white" stroke-width="2.5" stroke-linecap="round" stroke-linejoin="round"/>
</svg>
