<svg width="40" height="40" viewBox="0 0 40 40" fill="none" xmlns="http://www.w3.org/2000/svg">
<path d="M16.6668 6.66667L20.0002 10H33.3335C34.2176 10 35.0654 10.3512 35.6905 10.9763C36.3156 11.6014 36.6668 12.4493 36.6668 13.3333V30C36.6668 31.8333 35.1668 33.3333 33.3335 33.3333H6.66683C5.78277 33.3333 4.93493 32.9821 4.30981 32.357C3.68469 31.7319 3.3335 30.8841 3.3335 30V10C3.3335 8.15 4.81683 6.66667 6.66683 6.66667H16.6668ZM31.6668 15H25.8335V21.7667L25.0002 21.6667C24.1161 21.6667 23.2683 22.0179 22.6431 22.643C22.018 23.2681 21.6668 24.1159 21.6668 25C21.6668 25.8841 22.018 26.7319 22.6431 27.357C23.2683 27.9821 24.1161 28.3333 25.0002 28.3333C26.8502 28.3333 28.3335 26.85 28.3335 25V18.3333H31.6668V15Z" fill="white"/>
</svg>
