<svg width="40" height="40" viewBox="0 0 40 40" fill="none" xmlns="http://www.w3.org/2000/svg">
<path d="M26.6666 6.66663C27.1087 6.66663 27.5326 6.84222 27.8451 7.15478C28.1577 7.46734 28.3333 7.89127 28.3333 8.33329V15.3333L37.0216 9.24996C37.1466 9.16239 37.2931 9.11079 37.4454 9.10079C37.5976 9.0908 37.7497 9.12279 37.885 9.19328C38.0203 9.26377 38.1336 9.37006 38.2127 9.50055C38.2918 9.63104 38.3335 9.78072 38.3333 9.93329V30.0666C38.3335 30.2192 38.2918 30.3689 38.2127 30.4994C38.1336 30.6299 38.0203 30.7361 37.885 30.8066C37.7497 30.8771 37.5976 30.9091 37.4454 30.8991C37.2931 30.8891 37.1466 30.8375 37.0216 30.75L28.3333 24.6666V31.6666C28.3333 32.1087 28.1577 32.5326 27.8451 32.8451C27.5326 33.1577 27.1087 33.3333 26.6666 33.3333H3.33329C2.89127 33.3333 2.46734 33.1577 2.15478 32.8451C1.84222 32.5326 1.66663 32.1087 1.66663 31.6666V8.33329C1.66663 7.89127 1.84222 7.46734 2.15478 7.15478C2.46734 6.84222 2.89127 6.66663 3.33329 6.66663H26.6666ZM13.3333 13.3333V18.3333H8.33329V21.6666H13.3316L13.3333 26.6666H16.6666L16.665 21.6666H21.6666V18.3333H16.6666V13.3333H13.3333Z" fill="white"/>
</svg>
