<svg width="106" height="100" viewBox="0 0 106 100" fill="none" xmlns="http://www.w3.org/2000/svg">
<path fill-rule="evenodd" clip-rule="evenodd" d="M84.7999 5H21.1999C19.7943 5 18.4462 5.52678 17.4522 6.46447C16.4583 7.40215 15.8999 8.67392 15.8999 10V90C15.8999 91.3261 16.4583 92.5979 17.4522 93.5355C18.4462 94.4732 19.7943 95 21.1999 95H84.7999C86.2056 95 87.5536 94.4732 88.5476 93.5355C89.5415 92.5979 90.0999 91.3261 90.0999 90V10C90.0999 8.67392 89.5415 7.40215 88.5476 6.46447C87.5536 5.52678 86.2056 5 84.7999 5ZM67.8134 57.595C66.8329 59.505 65.8365 59.605 66.2711 57.595C67.3894 52.4 66.6315 41.24 58.2999 40V63.75C58.2999 68.615 55.9255 72.85 49.6132 74.765C43.4864 76.61 36.6335 74.685 35.0276 70.535C33.4217 66.385 37.0257 61.335 43.073 59.255C46.4491 58.095 50.3605 57.795 52.9999 58.75V25H58.2999C58.2999 36.775 79.8444 34.195 67.8134 57.595Z" fill="white"/>
</svg>
