<svg width="40" height="40" viewBox="0 0 40 40" fill="none" xmlns="http://www.w3.org/2000/svg">
<path d="M7.49992 14.2533C7.49992 17.5783 10.0083 20.0867 13.3333 20.0867C16.6583 20.0867 19.1666 17.5783 19.1666 14.2533C19.1666 10.9283 16.6583 8.42001 13.3333 8.42001C10.0083 8.42001 7.49992 10.9283 7.49992 14.2533ZM31.6666 13.3333H28.3333V18.3333H23.3333V21.6667H28.3333V26.6667H31.6666V21.6667H36.6666V18.3333H31.6666V13.3333ZM6.66659 31.6667H23.3333V30C23.3333 25.405 19.5949 21.6667 14.9999 21.6667H11.6666C7.07159 21.6667 3.33325 25.405 3.33325 30V31.6667H6.66659Z" fill="white"/>
</svg>
