<svg width="40" height="40" viewBox="0 0 40 40" fill="none" xmlns="http://www.w3.org/2000/svg">
<path d="M20 18.8889C21.6399 18.8911 23.2435 18.4068 24.6081 17.4974C25.9727 16.5879 27.0368 15.2941 27.6659 13.7797C28.2949 12.2653 28.4607 10.5984 28.1421 8.98974C27.8235 7.38112 27.035 5.90314 25.8762 4.74281C24.7174 3.58247 23.2405 2.79193 21.6323 2.4712C20.0241 2.15047 18.3569 2.31397 16.8417 2.941C15.3264 3.56804 14.0312 4.63044 13.1199 5.99378C12.2086 7.35712 11.7222 8.96014 11.7222 10.6C11.7222 12.7964 12.594 14.9031 14.1461 16.4572C15.6981 18.0114 17.8036 18.8859 20 18.8889V18.8889ZM20 4.52222C21.2008 4.52002 22.3753 4.87424 23.3746 5.54001C24.374 6.20577 25.1533 7.15314 25.6139 8.26214C26.0744 9.37113 26.1955 10.5918 25.9617 11.7697C25.728 12.9476 25.15 14.0295 24.3009 14.8787C23.4518 15.7278 22.3698 16.3058 21.1919 16.5395C20.0141 16.7732 18.7934 16.6522 17.6844 16.1916C16.5754 15.7311 15.628 14.9518 14.9622 13.9524C14.2965 12.953 13.9423 11.7786 13.9445 10.5778C13.9474 8.97264 14.5863 7.4341 15.7213 6.29909C16.8563 5.16409 18.3949 4.52516 20 4.52222V4.52222Z" fill="white"/>
<path d="M6.66668 35.4333V28.6333C8.38209 26.833 10.4534 25.4093 12.7489 24.4529C15.0443 23.4964 17.5137 23.0281 20 23.0778C23.4029 23.032 26.7523 23.9279 29.6778 25.6667L31.1778 23.9889C27.8331 21.8822 23.9527 20.7829 20 20.8222C17.108 20.7486 14.2354 21.3138 11.5869 22.4777C8.93842 23.6415 6.57932 25.3754 4.67779 27.5556C4.52957 27.7465 4.44765 27.9806 4.44445 28.2222V35.4333C4.42951 36.0386 4.65495 36.6251 5.07143 37.0645C5.48792 37.5039 6.06152 37.7603 6.66668 37.7778H20.4333L18.3222 35.5556L6.66668 35.4333Z" fill="white"/>
<path d="M33.3333 35.4333V35.5556H29.8333L27.8333 37.7778H33.3333C33.9307 37.7604 34.4976 37.5101 34.9128 37.0803C35.328 36.6505 35.5587 36.0754 35.5556 35.4778V29.1111L33.3333 31.5889V35.4333Z" fill="white"/>
<path d="M38.6222 20.6889C38.4025 20.4933 38.1142 20.3928 37.8205 20.4095C37.5268 20.4262 37.2517 20.5586 37.0555 20.7778L24.1444 35.2222L18.3667 29.0111C18.2718 28.9002 18.1561 28.8091 18.026 28.7429C17.8959 28.6768 17.7541 28.6369 17.6086 28.6255C17.4632 28.6142 17.3169 28.6316 17.1781 28.6768C17.0394 28.722 16.9109 28.794 16.8 28.8889C16.6914 28.9877 16.6034 29.1071 16.5412 29.2401C16.479 29.3731 16.4438 29.5172 16.4376 29.6639C16.4314 29.8106 16.4543 29.9571 16.5051 30.0949C16.5558 30.2327 16.6334 30.359 16.7333 30.4667L24.1667 38.4667L38.7111 22.2222C38.8965 22.0044 38.9908 21.7234 38.9742 21.4377C38.9577 21.1521 38.8316 20.8839 38.6222 20.6889V20.6889Z" fill="white"/>
</svg>
