<svg width="127" height="128" viewBox="0 0 127 128" fill="none" xmlns="http://www.w3.org/2000/svg">
<path d="M82.6205 96.3925C83.0391 96.9916 83.2863 97.695 83.3353 98.4261C83.3842 99.1571 83.233 99.8877 82.8982 100.538C82.5633 101.188 82.0576 101.733 81.4364 102.114C80.8151 102.494 80.102 102.696 79.375 102.695L7.93555 102.698C7.20857 102.699 6.49553 102.497 5.87424 102.117C5.25295 101.736 4.74728 101.191 4.41242 100.541C4.07755 99.8906 3.92635 99.1601 3.97532 98.4291C4.02429 97.698 4.27155 96.9946 4.69011 96.3955C10.2637 88.4245 18.1091 82.3489 27.1865 78.974C21.8615 75.409 17.8168 70.2109 15.6509 64.149C13.485 58.087 13.313 51.4833 15.1604 45.3152C17.0078 39.1471 20.7764 33.7423 25.9084 29.9006C31.0405 26.059 37.2634 23.9847 43.656 23.9847C50.0487 23.9847 56.2716 26.059 61.4036 29.9006C66.5357 33.7423 70.3043 39.1471 72.1517 45.3152C73.9991 51.4833 73.8271 58.087 71.6612 64.149C69.4953 70.2109 65.4506 75.409 60.1256 78.974C69.2019 82.3485 77.0465 88.423 82.62 96.3925H82.6205ZM123.063 96.3925C117.489 88.4229 109.645 82.3484 100.568 78.974C106.47 75.0153 110.777 69.0633 112.712 62.1893C114.648 55.3152 114.086 47.9706 111.126 41.4773C108.167 34.984 103.006 29.7684 96.5709 26.7693C90.136 23.7701 82.8502 23.1844 76.0249 25.1175C75.4053 25.2932 74.8374 25.6181 74.3702 26.0643C73.9029 26.5104 73.5504 27.0644 73.3429 27.6785C73.1353 28.2926 73.0791 28.9483 73.1791 29.5891C73.279 30.23 73.5321 30.8367 73.9165 31.357C78.4028 37.431 80.9818 44.7198 81.3214 52.2843C81.6609 59.8488 79.7454 67.3425 75.8215 73.8C75.3034 74.6516 75.1201 75.6678 75.3079 76.6487C75.4956 77.6297 76.0408 78.5043 76.836 79.1005C78.3407 80.2292 79.7883 81.4333 81.1734 82.708C81.2453 82.7865 81.3172 82.8645 81.3966 82.938C86.6936 87.8737 90.9866 93.8014 94.0361 100.39C94.3557 101.08 94.8638 101.664 95.5009 102.072C96.138 102.481 96.8776 102.698 97.6328 102.698L119.818 102.695C120.545 102.695 121.258 102.494 121.879 102.114C122.5 101.733 123.006 101.188 123.34 100.538C123.675 99.8872 123.826 99.1568 123.777 98.4258C123.728 97.6949 123.481 96.9915 123.063 96.3925H123.063Z" fill="white"/>
</svg>
